<svg style="aspect-ratio: 1;" viewBox="0 0 60 61" xmlns="http://www.w3.org/2000/svg">
<path fill-rule="evenodd" clip-rule="evenodd" d="M30 10.5C18.9543 10.5 10 19.4543 10 30.5C10 41.5458 18.9543 50.5 30 50.5C33.0057 50.5 35.85 49.8385 38.4013 48.6558C39.654 48.075 41.1403 48.6198 41.721 49.8725C42.3018 51.125 41.757 52.6112 40.5043 53.192C37.3075 54.674 33.7468 55.5 30 55.5C16.1929 55.5 5 44.307 5 30.5C5 16.6929 16.1929 5.5 30 5.5C43.807 5.5 55 16.6929 55 30.5L54.9995 30.5475C54.8952 36.0222 53.1518 39.7098 50.5813 41.9983C48.0715 44.233 45.099 44.842 43.0263 44.842C40.045 44.842 37.4278 43.294 35.9313 40.958C30.7398 45.5455 23.2564 46.5538 18.6354 41.4193C13.8208 36.0698 15.1631 27.1377 20.2999 21.4301C25.2698 15.908 34.3068 13.7758 39.4953 20.1643C39.9413 18.946 41.2595 18.2607 42.5273 18.622C43.8553 19.0005 44.6248 20.3837 44.2465 21.7115C42.766 26.9025 41.0187 32.0447 39.7132 37.28C40.0935 38.7532 41.4348 39.842 43.0263 39.842C44.2238 39.842 45.894 39.477 47.2565 38.264C48.556 37.107 49.9115 34.8793 50 30.4763C49.9872 19.4415 41.0378 10.5 30 10.5ZM35.8827 32.785C36.0567 32.1847 36.5155 30.5815 37.049 28.7148C37.6335 26.6673 36.877 24.7005 35.2798 22.9256C32.9818 20.3723 28.0505 20.2926 24.0163 24.775C19.9608 29.2812 19.8126 35.253 22.3519 38.0745C24.6499 40.6278 29.5813 40.7072 33.6153 36.225C34.5478 35.1887 35.426 34.1147 35.8827 32.785Z" />
</svg>
