<svg style="aspect-ratio: 1;" viewBox="0 0 32 32" xmlns="http://www.w3.org/2000/svg">
  <path
    d="M18.1022 12.1289C18.1022 10.5649 19.3702 9.29691 20.9332 9.29691C22.4962 9.29691 23.7642 10.5649 23.7642 12.1279C23.7642 13.6919 22.4972 14.9589 20.9332 14.9589C20.9332 14.9589 20.9332 14.9589 20.9322 14.9589C19.3692 14.9589 18.1022 13.6919 18.1022 12.1289C18.1022 12.1289 18.1012 12.1289 18.1012 12.1279L18.1022 12.1289ZM24.6912 12.1349C24.6912 10.0539 23.0042 8.36691 20.9232 8.36691C18.8422 8.36691 17.1552 10.0539 17.1552 12.1349C17.1552 14.2159 18.8422 15.9029 20.9232 15.9029C23.0032 15.8999 24.6882 14.2139 24.6912 12.1349ZM10.4272 23.7599L8.58623 22.9979C9.11023 24.0759 10.1972 24.8059 11.4542 24.8059C12.7712 24.8059 13.9022 24.0049 14.3842 22.8629L14.3922 22.8419C14.5472 22.4799 14.6382 22.0579 14.6382 21.6159C14.6382 19.8589 13.2142 18.4349 11.4572 18.4349C11.0522 18.4349 10.6652 18.5109 10.3092 18.6479L10.3312 18.6409L12.2342 19.4279C13.0862 19.7919 13.6732 20.6239 13.6732 21.5919C13.6732 22.8879 12.6222 23.9389 11.3262 23.9389C11.0022 23.9389 10.6942 23.8729 10.4132 23.7549L10.4282 23.7609L10.4272 23.7599ZM15.9742 1.00391C8.11723 1.00491 1.67323 7.04991 1.03623 14.7419L1.03223 14.7959L9.07023 18.1179C9.73823 17.6559 10.5652 17.3809 11.4572 17.3809C11.4582 17.3809 11.4592 17.3809 11.4592 17.3809C11.5382 17.3809 11.6152 17.3859 11.6942 17.3889L15.2692 12.2129V12.1389C15.2722 9.01891 17.8022 6.49091 20.9222 6.49091C24.0442 6.49091 26.5752 9.02191 26.5752 12.1439C26.5752 15.2659 24.0442 17.7969 20.9222 17.7969H20.7912L15.6972 21.4349C15.6972 21.4999 15.7022 21.5659 15.7022 21.6339C15.7022 21.6349 15.7022 21.6359 15.7022 21.6369C15.7022 23.9789 13.8032 25.8779 11.4612 25.8779C9.41423 25.8779 7.70523 24.4269 7.30823 22.4979L7.30323 22.4709L1.54823 20.0879C3.38923 26.4329 9.14923 30.9929 15.9732 30.9929C24.2542 30.9929 30.9672 24.2799 30.9672 15.9989C30.9672 7.71791 24.2542 1.00491 15.9732 1.00491L15.9742 1.00391Z"
  />
</svg>