<svg style="aspect-ratio: 1;" viewBox="0 0 61 61"
  xmlns="http://www.w3.org/2000/svg">
  <path d="M31.9939 2.69458C35.0632 2.64771 38.1101 2.67208 41.1551 2.64771C41.2564 6.45583 42.8014 9.88333 45.2595 12.4221L45.2557 12.4183C47.9014 14.8015 51.3439 16.3465 55.1389 16.609L55.1914 16.6127V26.0552C51.6064 25.9652 48.2351 25.1383 45.1957 23.7171L45.3495 23.7808C43.8795 23.074 42.6364 22.3483 41.4551 21.5383L41.5526 21.6021C41.5301 28.444 41.5751 35.2858 41.5057 42.1033C41.3126 45.5777 40.1576 48.7465 38.3051 51.3921L38.3426 51.334C35.2451 55.7702 30.2276 58.6821 24.522 58.8546H24.4957C24.2651 58.8658 23.9932 58.8715 23.7195 58.8715C20.4757 58.8715 17.4439 57.9677 14.8601 56.3983L14.9351 56.4415C10.2326 53.6121 6.98887 48.7708 6.38887 43.1402L6.38137 43.0633C6.33449 41.8915 6.31199 40.7196 6.35887 39.5721C7.27762 30.6115 14.7851 23.6796 23.9107 23.6796C24.9364 23.6796 25.9414 23.7677 26.9182 23.9346L26.8132 23.9196C26.8601 27.3865 26.7195 30.8552 26.7195 34.3221C25.9264 34.0352 25.0114 33.8683 24.057 33.8683C20.5545 33.8683 17.5751 36.1071 16.4726 39.2327L16.4557 39.289C16.2064 40.0896 16.062 41.0102 16.062 41.9627C16.062 42.349 16.0864 42.7315 16.1314 43.1065L16.1276 43.0615C16.7501 46.8977 20.0389 49.7927 24.0045 49.7927C24.1189 49.7927 24.2314 49.7908 24.3439 49.7852H24.327C27.0701 49.7027 29.4514 48.2271 30.7976 46.0465L30.8164 46.0127C31.317 45.3152 31.6601 44.4715 31.7745 43.5546L31.7764 43.5283C32.0107 39.334 31.917 35.164 31.9395 30.9696C31.962 21.5271 31.917 12.1071 31.9864 2.68896L31.9939 2.69458Z"/>
</svg>
