<svg style="aspect-ratio: 1;" viewBox="0 0 61 61" fill="none"
  xmlns="http://www.w3.org/2000/svg">
  <path fill-rule="evenodd" clip-rule="evenodd" d="M19.6339 54.7645C42.2749 54.7645 54.6589 36.2952 54.6589 20.2806C54.6589 19.7549 54.6589 19.2331 54.6229 18.7133C57.0319 17.0001 59.1109 14.8731 60.7639 12.4393C58.5199 13.4199 56.1349 14.063 53.6959 14.3466C56.2639 12.8313 58.1869 10.4509 59.1079 7.64196C56.6899 9.05379 54.0469 10.0502 51.2899 10.5848C46.6279 5.70542 38.8309 5.46902 33.8719 10.059C30.6769 13.0185 29.3179 17.4311 30.3109 21.64C20.4139 21.1497 11.1919 16.548 4.93992 8.9779C1.67292 14.5159 3.34392 21.598 8.75292 25.1542C6.79392 25.098 4.87692 24.5788 3.16392 23.6395V23.7933C3.16692 29.5618 7.29792 34.5287 13.0399 35.6717C11.2279 36.1591 9.32592 36.2298 7.48392 35.8783C9.09492 40.8168 13.7179 44.1993 18.9829 44.2967C14.6239 47.6698 9.23892 49.5014 3.69492 49.4955C2.71692 49.4925 1.73892 49.4363 0.763916 49.3212C6.39492 52.8773 12.9439 54.7646 19.6339 54.7557"/>
</svg>
