<svg style="aspect-ratio: 1;" viewBox="0 0 61 61" fill="none"
  xmlns="http://www.w3.org/2000/svg">
  <path d="M58.3677 46.8508C57.2709 49.3164 54.4415 51.5495 51.7846 52.0426C51.5127 52.0933 45.0196 53.2651 30.7827 53.2651H30.7452C16.5102 53.2651 10.0115 52.0933 9.74149 52.0445C7.08462 51.5495 4.25337 49.3164 3.15462 46.8489C3.05712 46.6295 0.765869 41.3533 0.765869 30.7651C0.765869 20.177 3.05712 14.8989 3.15462 14.6795C4.25337 12.212 7.08462 9.98076 9.74149 9.48764C10.0115 9.43701 16.5102 8.26514 30.7452 8.26514C45.0196 8.26514 51.5127 9.43701 51.7827 9.48576C54.4415 9.98076 57.2709 12.212 58.3696 14.6776C58.4671 14.8989 60.764 20.177 60.764 30.7651C60.764 41.3533 58.4671 46.6295 58.3677 46.8508ZM54.9384 16.1964C54.3534 14.882 52.5196 13.4383 51.0984 13.1739C51.0384 13.1626 44.6127 12.0151 30.7827 12.0151C16.9171 12.0151 10.4859 13.1626 10.424 13.1739C9.00274 13.4383 7.17087 14.882 6.58399 16.2039C6.56524 16.2433 4.51774 21.0695 4.51774 30.7651C4.51774 40.4589 6.56524 45.2851 6.58774 45.3339C7.17087 46.6483 9.00274 48.092 10.4259 48.3564C10.4859 48.3676 16.9171 49.5151 30.7452 49.5151H30.7827C44.6127 49.5151 51.0384 48.3676 51.1002 48.3564C52.5215 48.092 54.3534 46.6483 54.9402 45.3264C54.959 45.2851 57.0102 40.4589 57.0102 30.7651C57.0102 21.0714 54.959 16.2433 54.9384 16.1964ZM26.1534 41.7264C25.8496 41.9195 25.5009 42.0151 25.154 42.0151C24.8427 42.0151 24.5315 41.9383 24.2484 41.7808C23.6502 41.4508 23.279 40.8226 23.279 40.1401V21.3901C23.279 20.7095 23.6465 20.0833 24.2409 19.7533C24.8352 19.4214 25.5646 19.4364 26.1402 19.7945L41.1759 29.087C41.7252 29.4264 42.0627 30.0264 42.0646 30.6733C42.0665 31.3201 41.7365 31.9239 41.189 32.267L26.1534 41.7264ZM27.0309 24.7539V36.7445L36.6459 30.6958L27.0309 24.7539Z" />
</svg>
