<svg style="aspect-ratio: 1;" viewBox="0 0 40 40"
  xmlns="http://www.w3.org/2000/svg">
  <path d="M20 8C17.6266 8 15.3066 8.70379 13.3332 10.0224C11.3598 11.3409 9.8217 13.2151 8.91345 15.4078C8.0052 17.6005 7.76756 20.0133 8.23058 22.3411C8.6936 24.6689 9.83649 26.8071 11.5147 28.4853C13.193 30.1635 15.3312 31.3064 17.6589 31.7694C19.9867 32.2324 22.3995 31.9948 24.5922 31.0866C26.7849 30.1783 28.6591 28.6402 29.9776 26.6668C31.2962 24.6935 32 22.3734 32 20C31.9966 16.8185 30.7312 13.7682 28.4815 11.5185C26.2318 9.26883 23.1815 8.00344 20 8V8ZM20 30C18.0222 30 16.0888 29.4135 14.4443 28.3147C12.7998 27.2159 11.5181 25.6541 10.7612 23.8268C10.0043 21.9996 9.8063 19.9889 10.1922 18.0491C10.578 16.1093 11.5304 14.3275 12.9289 12.9289C14.3275 11.5304 16.1093 10.578 18.0491 10.1921C19.9889 9.8063 21.9996 10.0043 23.8268 10.7612C25.6541 11.5181 27.2159 12.7998 28.3147 14.4443C29.4135 16.0888 30 18.0222 30 20C29.9971 22.6513 28.9426 25.1931 27.0679 27.0679C25.1931 28.9426 22.6513 29.9971 20 30ZM25 20C25 20.2652 24.8946 20.5196 24.7071 20.7071C24.5196 20.8946 24.2652 21 24 21H21V24C21 24.2652 20.8946 24.5196 20.7071 24.7071C20.5196 24.8946 20.2652 25 20 25C19.7348 25 19.4804 24.8946 19.2929 24.7071C19.1054 24.5196 19 24.2652 19 24V21H16C15.7348 21 15.4804 20.8946 15.2929 20.7071C15.1054 20.5196 15 20.2652 15 20C15 19.7348 15.1054 19.4804 15.2929 19.2929C15.4804 19.1054 15.7348 19 16 19H19V16C19 15.7348 19.1054 15.4804 19.2929 15.2929C19.4804 15.1054 19.7348 15 20 15C20.2652 15 20.5196 15.1054 20.7071 15.2929C20.8946 15.4804 21 15.7348 21 16V19H24C24.2652 19 24.5196 19.1054 24.7071 19.2929C24.8946 19.4804 25 19.7348 25 20Z" />
</svg>
