<svg style="aspect-ratio: 1;" viewBox="0 0 17 16"
  xmlns="http://www.w3.org/2000/svg">
  <path d="M9.16677 13.3333C10.0505 13.3323 10.8977 12.9808 11.5226 12.3559C12.1475 11.731 12.499 10.8837 12.5001 10V4.16201C12.5011 3.81158 12.4326 3.46444 12.2985 3.14069C12.1644 2.81694 11.9673 2.52304 11.7188 2.27601L10.2241 0.781345C9.97707 0.532794 9.68317 0.335747 9.35942 0.201625C9.03568 0.0675033 8.68853 -0.0010253 8.3381 1.15931e-05H5.16677C4.28304 0.00107016 3.43581 0.3526 2.81092 0.977492C2.18602 1.60238 1.83449 2.44961 1.83344 3.33334V10C1.83449 10.8837 2.18602 11.731 2.81092 12.3559C3.43581 12.9808 4.28304 13.3323 5.16677 13.3333H9.16677ZM3.16677 10V3.33334C3.16677 2.80291 3.37748 2.2942 3.75255 1.91913C4.12763 1.54406 4.63634 1.33334 5.16677 1.33334C5.16677 1.33334 8.4461 1.34268 8.5001 1.34934V2.66668C8.5001 3.0203 8.64058 3.35944 8.89063 3.60949C9.14067 3.85954 9.47981 4.00001 9.83344 4.00001H11.1508C11.1574 4.05401 11.1668 10 11.1668 10C11.1668 10.5304 10.9561 11.0392 10.581 11.4142C10.2059 11.7893 9.6972 12 9.16677 12H5.16677C4.63634 12 4.12763 11.7893 3.75255 11.4142C3.37748 11.0392 3.16677 10.5304 3.16677 10V10ZM15.1668 5.33334V12.6667C15.1657 13.5504 14.8142 14.3976 14.1893 15.0225C13.5644 15.6474 12.7172 15.999 11.8334 16H5.83344C5.65662 16 5.48706 15.9298 5.36203 15.8048C5.23701 15.6797 5.16677 15.5102 5.16677 15.3333C5.16677 15.1565 5.23701 14.987 5.36203 14.8619C5.48706 14.7369 5.65662 14.6667 5.83344 14.6667H11.8334C12.3639 14.6667 12.8726 14.456 13.2476 14.0809C13.6227 13.7058 13.8334 13.1971 13.8334 12.6667V5.33334C13.8334 5.15653 13.9037 4.98696 14.0287 4.86194C14.1537 4.73692 14.3233 4.66668 14.5001 4.66668C14.6769 4.66668 14.8465 4.73692 14.9715 4.86194C15.0965 4.98696 15.1668 5.15653 15.1668 5.33334Z" />
</svg>
