<svg style="aspect-ratio: 1;" viewBox="0 0 24 24"
  xmlns="http://www.w3.org/2000/svg">
  <g clip-path="url(#clip0_3098_2218)">
    <g mask="url(#mask0_3098_2218)">
      <path d="M19.4849 5.42479C18.1685 4.82074 16.7568 4.37571 15.2808 4.12082C15.2539 4.1159 15.2271 4.12819 15.2132 4.15278C15.0317 4.47569 14.8305 4.89696 14.6897 5.22807C13.1022 4.9904 11.5228 4.9904 9.96777 5.22807C9.82691 4.8896 9.6185 4.47569 9.43613 4.15278C9.42228 4.12901 9.39543 4.11672 9.36855 4.12082C7.89335 4.37489 6.48166 4.81993 5.16439 5.42479C5.15299 5.4297 5.14321 5.43791 5.13673 5.44855C2.45904 9.44896 1.72551 13.351 2.08536 17.2047C2.08698 17.2236 2.09757 17.2416 2.11222 17.2531C3.87888 18.5505 5.5902 19.3381 7.26973 19.8602C7.29661 19.8684 7.32509 19.8586 7.3422 19.8364C7.73949 19.2939 8.09364 18.7218 8.39729 18.1202C8.41521 18.085 8.39811 18.0432 8.36148 18.0292C7.79974 17.8161 7.26484 17.5563 6.75031 17.2613C6.70961 17.2375 6.70636 17.1793 6.7438 17.1514C6.85207 17.0703 6.96038 16.9859 7.06377 16.9007C7.08247 16.8851 7.10854 16.8818 7.13053 16.8916C10.5108 18.4349 14.1703 18.4349 17.5107 16.8916C17.5327 16.881 17.5587 16.8843 17.5782 16.8998C17.6817 16.9851 17.7899 17.0703 17.899 17.1514C17.9365 17.1793 17.934 17.2375 17.8933 17.2613C17.3788 17.5621 16.8439 17.8161 16.2813 18.0284C16.2447 18.0424 16.2284 18.085 16.2463 18.1202C16.5565 18.721 16.9107 19.293 17.3006 19.8356C17.3169 19.8586 17.3462 19.8684 17.3731 19.8602C19.0608 19.3381 20.7721 18.5505 22.5387 17.2531C22.5542 17.2416 22.564 17.2244 22.5656 17.2056C22.9963 12.7503 21.8443 8.88017 19.5118 5.44937C19.5061 5.43791 19.4963 5.4297 19.4849 5.42479ZM8.90208 14.8582C7.88439 14.8582 7.04585 13.9239 7.04585 12.7765C7.04585 11.6291 7.86813 10.6947 8.90208 10.6947C9.94415 10.6947 10.7746 11.6373 10.7583 12.7765C10.7583 13.9239 9.936 14.8582 8.90208 14.8582ZM15.7652 14.8582C14.7475 14.8582 13.909 13.9239 13.909 12.7765C13.909 11.6291 14.7312 10.6947 15.7652 10.6947C16.8073 10.6947 17.6377 11.6373 17.6214 12.7765C17.6214 13.9239 16.8073 14.8582 15.7652 14.8582Z" />
    </g>
  </g>
  <defs>
  </defs>
</svg>
