<svg style="aspect-ratio: 1;" viewBox="0 0 32 33" fill="none" xmlns="http://www.w3.org/2000/svg">
<path d="M22 26.5H20.6666C20.1362 26.5 19.6275 26.2893 19.2524 25.9143C18.8773 25.5392 18.6666 25.0305 18.6666 24.5V20.5C18.6666 20.3232 18.5964 20.1537 18.4714 20.0286C18.3463 19.9036 18.1768 19.8334 18 19.8334H14C13.8231 19.8334 13.6536 19.9036 13.5286 20.0286C13.4035 20.1537 13.3333 20.3232 13.3333 20.5V24.5C13.3333 25.0305 13.1226 25.5392 12.7475 25.9143C12.3724 26.2893 11.8637 26.5 11.3333 26.5H9.99996C9.5598 26.5 9.12399 26.5872 8.71769 26.7565C8.31139 26.9258 7.94265 27.1739 7.63274 27.4865C7.32284 27.799 7.07791 28.1699 6.91209 28.5776C6.74627 28.9854 6.66284 29.4219 6.66663 29.862C6.6722 30.0345 6.74512 30.1978 6.86975 30.3171C6.99438 30.4364 7.1608 30.5021 7.33329 30.5H24.6666C24.8391 30.5021 25.0055 30.4364 25.1302 30.3171C25.2548 30.1978 25.3277 30.0345 25.3333 29.862C25.3371 29.4219 25.2537 28.9854 25.0878 28.5776C24.922 28.1699 24.6771 27.799 24.3672 27.4865C24.0573 27.1739 23.6885 26.9258 23.2822 26.7565C22.8759 26.5872 22.4401 26.5 22 26.5Z" fill="url(#paint0_radial_2832_1655)"/>
<path d="M9.96991 17.742C10.034 17.4847 9.99334 17.2126 9.85682 16.9853C9.72031 16.758 9.49913 16.5942 9.24191 16.53C9.07591 16.4853 5.04191 15.3187 4.68124 8.50067H7.67324C7.93846 8.50067 8.19281 8.39531 8.38035 8.20777C8.56788 8.02024 8.67324 7.76588 8.67324 7.50067C8.67333 7.36929 8.64753 7.23918 8.59731 7.11778C8.5471 6.99638 8.47345 6.88606 8.38058 6.79313C8.28771 6.7002 8.17745 6.62648 8.05608 6.57618C7.93471 6.52589 7.80462 6.5 7.67324 6.5H4.33991C4.11592 6.50107 3.8944 6.54685 3.68834 6.63466C3.48228 6.72246 3.29583 6.85052 3.13991 7.01133C2.98341 7.16952 2.86074 7.35789 2.77937 7.565C2.698 7.7721 2.65962 7.99359 2.66657 8.216C2.96057 16.9247 8.52057 18.4107 8.75657 18.47C8.88404 18.5019 9.01656 18.5084 9.14655 18.4891C9.27654 18.4698 9.40144 18.4251 9.51413 18.3575C9.62681 18.2899 9.72507 18.2007 9.80327 18.0951C9.88148 17.9895 9.9381 17.8695 9.96991 17.742Z" fill="url(#paint1_linear_2832_1655)"/>
<path d="M22.0299 17.742C21.9658 17.4847 22.0065 17.2126 22.143 16.9853C22.2795 16.758 22.5007 16.5942 22.7579 16.53C22.9239 16.4853 26.9579 15.3187 27.3186 8.50067H24.3266C24.0614 8.50067 23.807 8.39531 23.6195 8.20777C23.4319 8.02024 23.3266 7.76588 23.3266 7.50067C23.3265 7.36929 23.3523 7.23918 23.4025 7.11778C23.4527 6.99638 23.5264 6.88606 23.6192 6.79313C23.7121 6.7002 23.8224 6.62648 23.9438 6.57618C24.0651 6.52589 24.1952 6.5 24.3266 6.5H27.6599C27.8839 6.50107 28.1054 6.54685 28.3115 6.63466C28.5175 6.72246 28.704 6.85052 28.8599 7.01133C29.0152 7.17008 29.1367 7.3587 29.2169 7.56578C29.2971 7.77286 29.3344 7.99407 29.3266 8.216C29.0326 16.9247 23.4726 18.4107 23.2366 18.47C22.9801 18.5325 22.7093 18.4911 22.4832 18.3547C22.2572 18.2183 22.0942 17.9981 22.0299 17.742Z" fill="url(#paint2_linear_2832_1655)"/>
<path d="M15.9998 23.504C14.3519 23.503 12.7527 22.945 11.4618 21.9207C8.3245 19.4427 6.6665 16.3593 6.6665 13.006V4.5C6.6665 3.96957 6.87722 3.46086 7.25229 3.08579C7.62736 2.71071 8.13607 2.5 8.6665 2.5H23.3332C23.8636 2.5 24.3723 2.71071 24.7474 3.08579C25.1225 3.46086 25.3332 3.96957 25.3332 4.5V13.006C25.3332 16.3593 23.6752 19.4427 20.5378 21.9207C19.247 22.945 17.6478 23.503 15.9998 23.504Z" fill="url(#paint3_linear_2832_1655)"/>
<path d="M13.4552 12.714L12.5932 11.5933C12.5272 11.5075 12.483 11.4069 12.4646 11.3002C12.4461 11.1935 12.454 11.0839 12.4874 10.9809C12.5208 10.8779 12.5788 10.7846 12.6564 10.709C12.7339 10.6335 12.8287 10.578 12.9326 10.5473L14.2892 10.1473C14.4363 10.1039 14.5639 10.0111 14.6506 9.88462L15.4506 8.71862C15.5118 8.62925 15.5939 8.55614 15.6897 8.50563C15.7855 8.45511 15.8922 8.42871 16.0006 8.42871C16.1089 8.42871 16.2156 8.45511 16.3114 8.50563C16.4073 8.55614 16.4893 8.62925 16.5506 8.71862L17.3506 9.88462C17.4372 10.0111 17.5648 10.1039 17.7119 10.1473L19.0686 10.5473C19.1724 10.578 19.2672 10.6335 19.3448 10.709C19.4224 10.7846 19.4803 10.8779 19.5138 10.9809C19.5472 11.0839 19.555 11.1935 19.5366 11.3002C19.5181 11.4069 19.474 11.5075 19.4079 11.5933L18.5459 12.714C18.4525 12.8354 18.4037 12.9854 18.4079 13.1386L18.4466 14.5526C18.4495 14.6609 18.426 14.7682 18.3781 14.8653C18.3302 14.9625 18.2594 15.0465 18.1718 15.1101C18.0841 15.1737 17.9823 15.215 17.8751 15.2304C17.7679 15.2459 17.6586 15.2349 17.5566 15.1986L16.2232 14.7253C16.0788 14.6739 15.921 14.6739 15.7766 14.7253L14.4432 15.1986C14.3412 15.2349 14.2319 15.2459 14.1247 15.2304C14.0175 15.215 13.9157 15.1737 13.828 15.1101C13.7404 15.0465 13.6696 14.9625 13.6217 14.8653C13.5738 14.7682 13.5503 14.6609 13.5532 14.5526L13.5919 13.1386C13.5965 12.9856 13.5482 12.8356 13.4552 12.714Z" fill="url(#paint4_linear_2832_1655)"/>
<defs>
<radialGradient id="paint0_radial_2832_1655" cx="0" cy="0" r="1" gradientUnits="userSpaceOnUse" gradientTransform="translate(7.19729 30.256) scale(16.028 16.028)">
<stop stop-color="#FED200"/>
<stop offset="1" stop-color="#F59815"/>
</radialGradient>
<linearGradient id="paint1_linear_2832_1655" x1="2.70057" y1="12.5" x2="6.94657" y2="12.5" gradientUnits="userSpaceOnUse">
<stop stop-color="#FED200"/>
<stop offset="1" stop-color="#F59815"/>
</linearGradient>
<linearGradient id="paint2_linear_2832_1655" x1="23.6453" y1="12.5" x2="29.0339" y2="12.5" gradientUnits="userSpaceOnUse">
<stop stop-color="#FED200"/>
<stop offset="1" stop-color="#F59815"/>
</linearGradient>
<linearGradient id="paint3_linear_2832_1655" x1="6.6665" y1="13.002" x2="25.3332" y2="13.002" gradientUnits="userSpaceOnUse">
<stop stop-color="#FED200"/>
<stop offset="1" stop-color="#F59815"/>
</linearGradient>
<linearGradient id="paint4_linear_2832_1655" x1="12.4546" y1="11.8333" x2="19.5452" y2="11.8333" gradientUnits="userSpaceOnUse">
<stop stop-color="#FD9B02"/>
<stop offset="1" stop-color="#FF7302"/>
</linearGradient>
</defs>
</svg>
