<svg style="aspect-ratio: 1;" viewBox="0 0 24 25" xmlns="http://www.w3.org/2000/svg">
<path d="M21.8781 8.29079C21.958 8.68138 22 9.08579 22 9.5C22 9.49998 22 9.50002 22 9.5C22 16.8511 15.3285 20.3061 12.884 21.3254C12.3145 21.5628 11.6855 21.5628 11.116 21.3254C10.8104 21.198 10.4388 21.0325 10.0225 20.8261C7.10783 19.3815 2 15.9323 2 9.50009C2 6.18638 4.68629 3.5 8 3.5C9.53671 3.5 10.9385 4.07771 12 5.02779C13.0615 4.07771 14.4633 3.5 16 3.5C17.2949 3.5 18.494 3.91019 19.4744 4.60772C20.6893 5.4721 21.5685 6.77771 21.8781 8.29079Z" />
</svg>
