<svg style="aspect-ratio: 1;" viewBox="0 0 24 25"
  xmlns="http://www.w3.org/2000/svg">
  <path fill-rule="evenodd" clip-rule="evenodd" d="M12 7.71187L10.6662 6.51806C9.95717 5.88348 9.02575 5.5 8 5.5C5.79086 5.5 4 7.29086 4 9.5C4 12.4996 5.33975 14.712 7.03224 16.3501C8.75438 18.0169 10.7798 19.0183 11.8857 19.4794C11.9626 19.5114 12.0374 19.5114 12.1143 19.4794C13.2202 19.0183 15.2456 18.0169 16.9678 16.3501C18.6602 14.7119 20 12.4996 20 9.50004C20 7.2909 18.2091 5.5 16 5.5C14.9742 5.5 14.0428 5.88348 13.3338 6.51806L12 7.71187ZM12 5.02779C10.9385 4.07771 9.53671 3.5 8 3.5C4.68629 3.5 2 6.18629 2 9.5C2 16.8511 8.67146 20.3061 11.116 21.3254C11.6855 21.5628 12.3145 21.5628 12.884 21.3254C15.3285 20.3061 22 16.8512 22 9.50005C22 6.18634 19.3137 3.5 16 3.5C14.4633 3.5 13.0615 4.07771 12 5.02779Z" />
</svg>
