<svg style="aspect-ratio: 1;" viewBox="0 0 16 16" xmlns="http://www.w3.org/2000/svg">
<path d="M12.2426 10.3573L11.2999 9.41333L12.2426 8.47066C12.5543 8.16162 12.802 7.79406 12.9713 7.38906C13.1406 6.98406 13.2283 6.5496 13.2292 6.11064C13.2302 5.67167 13.1445 5.23683 12.9769 4.8311C12.8094 4.42536 12.5633 4.05671 12.2529 3.74631C11.9425 3.43592 11.5739 3.18988 11.1682 3.02234C10.7624 2.8548 10.3276 2.76905 9.88862 2.77001C9.44965 2.77097 9.0152 2.85863 8.6102 3.02794C8.2052 3.19726 7.83763 3.44491 7.52859 3.75666L6.58593 4.69999L5.64259 3.75733L6.58659 2.81466C7.46181 1.93944 8.64885 1.44775 9.88659 1.44775C11.1243 1.44775 12.3114 1.93944 13.1866 2.81466C14.0618 3.68987 14.5535 4.87692 14.5535 6.11466C14.5535 7.3524 14.0618 8.53944 13.1866 9.41466L12.2426 10.3573ZM10.3573 12.2427L9.41393 13.1853C8.53871 14.0605 7.35167 14.5522 6.11393 14.5522C4.87619 14.5522 3.68914 14.0605 2.81393 13.1853C1.93871 12.3101 1.44702 11.1231 1.44702 9.88533C1.44702 8.64759 1.93871 7.46054 2.81393 6.58533L3.75726 5.64266L4.69993 6.58666L3.75726 7.52933C3.44551 7.83836 3.19786 8.20593 3.02855 8.61093C2.85923 9.01593 2.77157 9.45038 2.77061 9.88935C2.76965 10.3283 2.8554 10.7631 3.02294 11.1689C3.19049 11.5746 3.43652 11.9433 3.74691 12.2537C4.05731 12.5641 4.42596 12.8101 4.8317 12.9776C5.23744 13.1452 5.67227 13.2309 6.11124 13.23C6.5502 13.229 6.98466 13.1414 7.38966 12.972C7.79466 12.8027 8.16222 12.5551 8.47126 12.2433L9.41393 11.3007L10.3573 12.2427ZM9.88526 5.17133L10.8286 6.11466L6.11459 10.828L5.17126 9.88533L9.88526 5.17133Z" />
</svg>
