<svg viewBox="0 0 60 60" xmlns="http://www.w3.org/2000/svg">
<path d="M37.3633 3.125C33.9445 3.12495 31.1885 3.1249 29.0213 3.4163C26.771 3.71885 24.8762 4.36608 23.3714 5.87088C22.0591 7.1832 21.396 8.7959 21.0479 10.6909C20.7097 12.5323 20.645 14.7858 20.6299 17.4896C20.6242 18.5251 21.4589 19.3692 22.4945 19.375C23.53 19.3808 24.3741 18.546 24.3799 17.5105C24.3951 14.7767 24.4661 12.839 24.7362 11.3684C24.9965 9.95135 25.4145 9.13115 26.023 8.52253C26.715 7.83063 27.6865 7.3795 29.5208 7.13288C31.4093 6.87898 33.912 6.875 37.5005 6.875H40.0005C43.589 6.875 46.0918 6.87898 47.9803 7.13288C49.8148 7.3795 50.786 7.83063 51.478 8.52253C52.17 9.21443 52.621 10.1859 52.8678 12.0203C53.1215 13.9087 53.1255 16.4115 53.1255 20V40C53.1255 43.5885 53.1215 46.0913 52.8678 47.9798C52.621 49.8143 52.17 50.7855 51.478 51.4775C50.786 52.1695 49.8148 52.6205 47.9803 52.8673C46.0918 53.121 43.589 53.125 40.0005 53.125H37.5005C33.912 53.125 31.4093 53.121 29.5208 52.8673C27.6865 52.6205 26.715 52.1695 26.023 51.4775C25.4145 50.8687 24.9965 50.0487 24.7362 48.6317C24.4661 47.161 24.3951 45.2233 24.3799 42.4895C24.3741 41.454 23.53 40.6193 22.4945 40.625C21.4589 40.6308 20.6242 41.475 20.6299 42.5105C20.645 45.2143 20.7097 47.4678 21.0479 49.309C21.396 51.204 22.0591 52.8167 23.3714 54.1292C24.8762 55.634 26.771 56.2812 29.0213 56.5837C31.1885 56.875 33.9445 56.875 37.3633 56.875H40.1378C43.5568 56.875 46.3125 56.875 48.48 56.5837C50.7303 56.2812 52.6248 55.634 54.1298 54.1292C55.6345 52.6242 56.2818 50.7297 56.5843 48.4795C56.8758 46.312 56.8755 43.5563 56.8755 40.1373V19.8628C56.8755 16.4439 56.8758 13.6881 56.5843 11.5206C56.2818 9.27035 55.6345 7.37568 54.1298 5.87088C52.6248 4.36608 50.7303 3.71885 48.48 3.4163C46.3125 3.1249 43.5568 3.12495 40.1378 3.125H37.3633Z" />
<path d="M37.5 28.125C38.5355 28.125 39.375 28.9645 39.375 30C39.375 31.0355 38.5355 31.875 37.5 31.875H10.0686L14.9702 36.0765C15.7565 36.7503 15.8475 37.934 15.1736 38.7203C14.4997 39.5065 13.316 39.5975 12.5298 38.9235L3.77977 31.4235C3.36417 31.0675 3.125 30.5473 3.125 30C3.125 29.4528 3.36417 28.9325 3.77977 28.5765L12.5298 21.0764C13.316 20.4025 14.4997 20.4936 15.1736 21.2798C15.8475 22.066 15.7565 23.2497 14.9702 23.9236L10.0686 28.125H37.5Z" />
</svg>
