<svg viewBox="0 0 24 24" fill="none" xmlns="http://www.w3.org/2000/svg">
  <g id="boleto-logo 1">
    <path id="rect2"
      d="M21.266 5.64087H2.7336C2.33222 5.64087 2.00684 5.96625 2.00684 6.36763V17.6324C2.00684 18.0338 2.33222 18.3592 2.7336 18.3592H21.266C21.6674 18.3592 21.9928 18.0338 21.9928 17.6324V6.36763C21.9928 5.96625 21.6674 5.64087 21.266 5.64087Z"
      fill="#F9F9F9" />
    <path id="path4"
      d="M4.48047 7.81604H4.65162V12.3605H4.48047V7.81604ZM4.82277 7.81604H4.99393V12.3605H4.82277V7.81604ZM5.85041 7.81604H6.02157V12.3605H5.85041V7.81604ZM9.18189 7.81604H9.35304V12.3605H9.18189V7.81604ZM10.2956 7.81604H10.4668V12.3605H10.2956V7.81604ZM11.3756 7.81604H11.5468V12.3605H11.3756V7.81604ZM11.654 7.81604H11.8251V12.3605H11.654V7.81604ZM11.9327 7.81604H12.1038V12.3605H11.9327V7.81604ZM12.2459 7.81604H12.4171V12.3605H12.2459V7.81604ZM12.5591 7.81604H12.7303V12.3605H12.5591V7.81604ZM13.4298 7.81604H13.601V12.3605H13.4298V7.81604ZM15.5886 7.81604H15.7598V12.3605H15.5886V7.81604ZM17.8405 7.81604H18.0117V12.3605H17.8405V7.81604ZM18.4564 7.81604H18.6276V12.3605H18.4564V7.81604ZM18.9016 7.81604H19.0727V12.3605H18.9016V7.81604ZM19.1756 7.81604H19.3467V12.3605H19.1756V7.81604ZM6.98053 7.81604H7.15168V12.3605H6.98053V7.81604ZM5.26791 7.81604H5.57606V12.3605H5.26791V7.81604ZM7.30176 7.81604H7.6099V12.3605H7.30176V7.81604ZM8.72984 7.81604H9.03799V12.3605H8.72984V7.81604ZM9.46096 7.81604H9.76911V12.3605H9.46096V7.81604ZM10.61 7.81604H10.9181V12.3605H10.61V7.81604ZM13.8858 7.81604H14.3651V12.3605H13.8858V7.81604ZM14.512 7.81604H14.8888V12.3605H14.512V7.81604ZM15.1726 7.81604H15.4807V12.3605H15.1726V7.81604ZM16.0461 7.81604H16.56V12.3605H16.0461V7.81604ZM17.0523 7.81604H17.5662V12.3605H17.0523V7.81604ZM6.19272 7.81604H6.80901V12.3605H6.19272V7.81604ZM7.79014 7.81604H8.26944V12.3605H7.79014V7.81604Z"
      fill="#010101" />
    <path id="path6"
      d="M4.70215 16.3954V13.7943H5.67819C5.84128 13.788 6.00396 13.8148 6.1564 13.8732C6.27326 13.9231 6.37177 14.008 6.43838 14.1163C6.50438 14.2187 6.5398 14.3378 6.54049 14.4597C6.5405 14.5708 6.50914 14.6796 6.45001 14.7736C6.38344 14.8773 6.28863 14.9597 6.17675 15.0113C6.32036 15.0481 6.44797 15.131 6.54013 15.2471C6.62541 15.3605 6.67008 15.4992 6.66695 15.641C6.66793 15.7587 6.64156 15.875 6.58991 15.9808C6.54622 16.0756 6.48058 16.1587 6.39841 16.2232C6.31288 16.2844 6.21605 16.3282 6.11352 16.3518C5.97604 16.3833 5.83521 16.398 5.69418 16.3954H4.70215ZM5.04663 14.8874H5.60915C5.71901 14.8917 5.82897 14.8815 5.93619 14.8572C6.01465 14.8373 6.08422 14.7918 6.13387 14.7278C6.18008 14.6614 6.20343 14.5816 6.20037 14.5007C6.20197 14.4204 6.1804 14.3413 6.13823 14.2729C6.09798 14.208 6.03546 14.1599 5.96235 14.1377C5.83267 14.1079 5.69957 14.0957 5.56663 14.1014H5.04663V14.8874ZM5.04663 16.0887H5.69418C5.77251 16.0908 5.85088 16.0866 5.92856 16.0763C5.99882 16.065 6.06628 16.0403 6.12733 16.0037C6.1831 15.9676 6.22835 15.9175 6.25851 15.8583C6.2937 15.7911 6.31144 15.7161 6.31011 15.6403C6.31254 15.5498 6.28648 15.4608 6.23561 15.3859C6.18544 15.314 6.11266 15.2609 6.02885 15.2351C5.90493 15.2016 5.77668 15.1869 5.64839 15.1915H5.04663V16.0887ZM7.16987 15.1287C7.1481 14.758 7.27302 14.3937 7.51762 14.1145C7.63289 13.9934 7.77252 13.8982 7.9273 13.835C8.08208 13.7719 8.24848 13.7423 8.41553 13.7482C8.64368 13.745 8.8683 13.8046 9.06489 13.9204C9.256 14.0334 9.40938 14.2004 9.50568 14.4004C9.60953 14.6183 9.6614 14.8572 9.6572 15.0985C9.66145 15.3438 9.60675 15.5866 9.49768 15.8064C9.39879 16.0064 9.24087 16.1713 9.04527 16.2788C8.85193 16.3853 8.6345 16.4406 8.41372 16.4394C8.18268 16.4432 7.95524 16.3819 7.75745 16.2624C7.56713 16.147 7.41468 15.9785 7.31885 15.7776C7.22014 15.5756 7.16916 15.3535 7.16987 15.1287ZM7.52489 15.1341C7.51009 15.4048 7.60134 15.6705 7.77925 15.875C7.85949 15.9629 7.95765 16.0326 8.0671 16.0793C8.17655 16.126 8.29475 16.1486 8.41372 16.1458C8.5334 16.1488 8.65233 16.1259 8.76234 16.0787C8.87236 16.0315 8.97086 15.961 9.05109 15.8721C9.23057 15.6551 9.32039 15.3777 9.30218 15.0967C9.30694 14.9064 9.27088 14.7173 9.19644 14.5422C9.13081 14.3911 9.02146 14.2631 8.88248 14.1748C8.74359 14.0875 8.58246 14.0422 8.41844 14.0443C8.30221 14.0426 8.18678 14.0638 8.07881 14.1069C7.97085 14.15 7.8725 14.2141 7.78943 14.2954C7.69114 14.4101 7.61705 14.5435 7.57159 14.6876C7.52613 14.8316 7.51025 14.9834 7.52489 15.1337V15.1341ZM10.2215 16.3954V13.7943H10.5657V16.0883H11.8466V16.3954H10.2215ZM12.3982 16.3954V13.7943H14.279V14.1014H12.7423V14.8979H14.1813V15.2031H12.7423V16.0883H14.3394V16.3954H12.3982ZM15.6112 16.3954V14.1014H14.754V13.7943H16.8158V14.1014H15.9553V16.3954H15.6112ZM17.133 15.1287C17.1115 14.7579 17.2366 14.3936 17.4815 14.1145C17.5968 13.9934 17.7364 13.8982 17.8912 13.835C18.046 13.7719 18.2124 13.7423 18.3794 13.7482C18.6076 13.745 18.8322 13.8046 19.0288 13.9204C19.2199 14.0334 19.3733 14.2004 19.4696 14.4004C19.5734 14.6183 19.6253 14.8572 19.6211 15.0985C19.6253 15.3438 19.5706 15.5866 19.4616 15.8064C19.3624 16.0068 19.2039 16.1718 19.0077 16.2791C18.8144 16.3857 18.5969 16.441 18.3762 16.4397C18.145 16.4435 17.9174 16.3821 17.7195 16.2624C17.5296 16.1469 17.3776 15.9784 17.282 15.7776C17.1833 15.5756 17.1323 15.3535 17.133 15.1287ZM17.4881 15.1341C17.4733 15.4048 17.5645 15.6705 17.7424 15.875C17.8227 15.9629 17.9208 16.0326 18.0303 16.0793C18.1397 16.126 18.2579 16.1486 18.3769 16.1458C18.4969 16.1492 18.6162 16.1265 18.7266 16.0793C18.8371 16.0321 18.9359 15.9616 19.0164 15.8725C19.1959 15.6555 19.2857 15.3781 19.2675 15.097C19.2713 14.9065 19.2341 14.7174 19.1585 14.5425C19.0929 14.3915 18.9835 14.2635 18.8446 14.1751C18.7057 14.0879 18.5445 14.0426 18.3805 14.0447C18.2643 14.0429 18.1489 14.0642 18.0409 14.1073C17.9329 14.1504 17.8346 14.2145 17.7515 14.2958C17.6534 14.4105 17.5795 14.5439 17.5341 14.6879C17.4888 14.8318 17.473 14.9835 17.4877 15.1337L17.4881 15.1341Z"
      fill="black" />
  </g>
</svg>