<svg viewBox="0 0 18 18" fill="none" xmlns="http://www.w3.org/2000/svg">
  <g id="Group 4727">
    <g id="g992">
      <path id="path994"
        d="M14.0379 13.7699C13.3317 13.7699 12.6675 13.4949 12.1682 12.9958L9.46835 10.296C9.27887 10.106 8.94844 10.1065 8.75897 10.296L6.0493 13.0057C5.54988 13.5048 4.88572 13.7797 4.17947 13.7797H3.64746L7.06676 17.1991C8.13468 18.267 9.86608 18.267 10.934 17.1991L14.3632 13.7699H14.0379Z"
        fill="white" />
    </g>
    <g id="g996">
      <path id="path998"
        d="M4.17939 4.22023C4.88563 4.22023 5.5498 4.4953 6.04913 4.99446L8.7588 7.70455C8.95394 7.8997 9.27261 7.90054 9.46826 7.7043L12.168 5.00428C12.6674 4.50512 13.3316 4.23014 14.0379 4.23014H14.363L10.9339 0.801019C9.866 -0.266898 8.13459 -0.266898 7.06668 0.801019L3.64746 4.22023H4.17939Z"
        fill="white" />
    </g>
    <g id="g1000">
      <path id="path1002"
        d="M17.1991 7.06641L15.1268 4.99416C15.0812 5.01245 15.0318 5.02388 14.9797 5.02388H14.0376C13.5504 5.02388 13.0736 5.22139 12.7295 5.56579L10.0296 8.26564C9.77706 8.51827 9.44511 8.64475 9.1134 8.64475C8.78145 8.64475 8.44974 8.51827 8.19711 8.2659L5.48719 5.55597C5.14296 5.21157 4.66623 5.01406 4.17909 5.01406H3.02059C2.97123 5.01406 2.925 5.00237 2.8814 4.98595L0.800938 7.06641C-0.266979 8.13425 -0.266979 9.86565 0.800938 10.9337L2.88132 13.014C2.92492 12.9976 2.97123 12.9859 3.02059 12.9859H4.17909C4.66623 12.9859 5.14296 12.7884 5.48719 12.444L8.19686 9.73435C8.68663 9.245 9.54035 9.24475 10.0296 9.7346L12.7295 12.4341C13.0736 12.7786 13.5504 12.9761 14.0376 12.9761H14.9797C15.0319 12.9761 15.0812 12.9875 15.1269 13.0057L17.1991 10.9337C18.267 9.86565 18.267 8.13425 17.1991 7.06641Z"
        fill="white" />
    </g>
  </g>
</svg>