<svg style="aspect-ratio: 1;" viewBox="0 0 16 17"
  xmlns="http://www.w3.org/2000/svg">
  <path d="M13.6627 5.81158L7.30267 1.14492C6.80593 0.781175 6.21815 0.562114 5.60451 0.512027C4.99087 0.461939 4.37535 0.582782 3.8262 0.861156C3.27704 1.13953 2.81572 1.56456 2.49337 2.08911C2.17103 2.61366 2.00026 3.21724 2 3.83292V13.1663C2.00011 13.7822 2.17089 14.3861 2.49338 14.9109C2.81588 15.4357 3.27748 15.8608 3.82695 16.1392C4.37642 16.4176 4.99227 16.5382 5.60616 16.4878C6.22006 16.4374 6.80797 16.2179 7.30467 15.8536L13.6647 11.1869C14.0868 10.8773 14.4302 10.4726 14.6668 10.0056C14.9034 9.53863 15.0268 9.02245 15.0268 8.49892C15.0268 7.97538 14.9034 7.45921 14.6668 6.99221C14.4302 6.52521 14.0868 6.12052 13.6647 5.81092L13.6627 5.81158ZM12.8733 10.1116L6.51333 14.7783C6.21534 14.996 5.86291 15.1271 5.49505 15.1569C5.12718 15.1867 4.75824 15.1142 4.42904 14.9473C4.09985 14.7805 3.82326 14.5258 3.62987 14.2114C3.43648 13.8971 3.33385 13.5353 3.33333 13.1663V3.83292C3.32963 3.46315 3.43033 3.09984 3.62385 2.78473C3.81737 2.46963 4.09587 2.21551 4.42733 2.05158C4.70926 1.90818 5.02103 1.83326 5.33733 1.83292C5.76126 1.83454 6.17348 1.97218 6.51333 2.22558L12.8733 6.89225C13.1263 7.07805 13.332 7.32079 13.4738 7.60083C13.6156 7.88087 13.6895 8.19036 13.6895 8.50425C13.6895 8.81814 13.6156 9.12763 13.4738 9.40767C13.332 9.68772 13.1263 9.93045 12.8733 10.1163V10.1116Z"/>
</svg>
