<svg style="aspect-ratio: 1;" viewBox="0 0 24 25"
  xmlns="http://www.w3.org/2000/svg">
  <path d="M9 12.5C10.1867 12.5 11.3467 12.1481 12.3334 11.4888C13.3201 10.8295 14.0892 9.89246 14.5433 8.7961C14.9974 7.69975 15.1162 6.49335 14.8847 5.32946C14.6532 4.16558 14.0818 3.09648 13.2426 2.25736C12.4035 1.41825 11.3344 0.846802 10.1705 0.615291C9.00666 0.38378 7.80026 0.5026 6.7039 0.956726C5.60754 1.41085 4.67047 2.17989 4.01118 3.16658C3.35189 4.15328 3 5.31332 3 6.5C3.00159 8.09082 3.63424 9.61602 4.75911 10.7409C5.88399 11.8658 7.40919 12.4984 9 12.5ZM9 2.5C9.79113 2.5 10.5645 2.7346 11.2223 3.17412C11.8801 3.61365 12.3928 4.23837 12.6955 4.96927C12.9983 5.70017 13.0775 6.50444 12.9231 7.28036C12.7688 8.05629 12.3878 8.76902 11.8284 9.32843C11.269 9.88784 10.5563 10.2688 9.78036 10.4231C9.00444 10.5775 8.20017 10.4983 7.46927 10.1955C6.73836 9.89277 6.11365 9.38008 5.67412 8.72228C5.2346 8.06449 5 7.29113 5 6.5C5 5.43914 5.42143 4.42172 6.17157 3.67158C6.92172 2.92143 7.93914 2.5 9 2.5ZM18 23.5C18 23.7652 17.8946 24.0196 17.7071 24.2071C17.5196 24.3946 17.2652 24.5 17 24.5C16.7348 24.5 16.4804 24.3946 16.2929 24.2071C16.1054 24.0196 16 23.7652 16 23.5C16 21.6435 15.2625 19.863 13.9497 18.5503C12.637 17.2375 10.8565 16.5 9 16.5C7.14349 16.5 5.36301 17.2375 4.05025 18.5503C2.7375 19.863 2 21.6435 2 23.5C2 23.7652 1.89464 24.0196 1.70711 24.2071C1.51957 24.3946 1.26522 24.5 1 24.5C0.734784 24.5 0.48043 24.3946 0.292893 24.2071C0.105357 24.0196 0 23.7652 0 23.5C0 21.1131 0.948212 18.8239 2.63604 17.136C4.32387 15.4482 6.61305 14.5 9 14.5C11.3869 14.5 13.6761 15.4482 15.364 17.136C17.0518 18.8239 18 21.1131 18 23.5ZM23.707 14.793C23.8025 14.8853 23.8787 14.9956 23.9311 15.1176C23.9835 15.2396 24.0111 15.3708 24.0123 15.5036C24.0134 15.6364 23.9881 15.7681 23.9378 15.891C23.8875 16.0139 23.8133 16.1255 23.7194 16.2194C23.6255 16.3133 23.5139 16.3875 23.391 16.4378C23.2681 16.4881 23.1364 16.5134 23.0036 16.5123C22.8708 16.5111 22.7396 16.4835 22.6176 16.4311C22.4956 16.3787 22.3852 16.3025 22.293 16.207L20.5 14.414L18.707 16.207C18.5184 16.3892 18.2658 16.49 18.0036 16.4877C17.7414 16.4854 17.4906 16.3802 17.3052 16.1948C17.1198 16.0094 17.0146 15.7586 17.0123 15.4964C17.01 15.2342 17.1108 14.9816 17.293 14.793L19.086 13L17.293 11.207C17.1108 11.0184 17.01 10.7658 17.0123 10.5036C17.0146 10.2414 17.1198 9.99059 17.3052 9.80519C17.4906 9.61978 17.7414 9.51461 18.0036 9.51233C18.2658 9.51005 18.5184 9.61085 18.707 9.793L20.5 11.586L22.293 9.793C22.4816 9.61085 22.7342 9.51005 22.9964 9.51233C23.2586 9.51461 23.5094 9.61978 23.6948 9.80519C23.8802 9.99059 23.9854 10.2414 23.9877 10.5036C23.99 10.7658 23.8892 11.0184 23.707 11.207L21.914 13L23.707 14.793Z" />
</svg>
