<svg style="aspect-ratio: 1;" viewBox="0 0 32 32" fill="none" xmlns="http://www.w3.org/2000/svg">
<path d="M22 26H20.6666C20.1362 26 19.6275 25.7893 19.2524 25.4143C18.8773 25.0392 18.6666 24.5305 18.6666 24V20C18.6666 19.8232 18.5964 19.6537 18.4714 19.5286C18.3463 19.4036 18.1768 19.3334 18 19.3334H14C13.8231 19.3334 13.6536 19.4036 13.5286 19.5286C13.4035 19.6537 13.3333 19.8232 13.3333 20V24C13.3333 24.5305 13.1226 25.0392 12.7475 25.4143C12.3724 25.7893 11.8637 26 11.3333 26H9.99996C9.5598 26 9.12399 26.0872 8.71769 26.2565C8.31139 26.4258 7.94265 26.6739 7.63274 26.9865C7.32284 27.299 7.07791 27.6699 6.91209 28.0776C6.74627 28.4854 6.66284 28.9219 6.66663 29.362C6.6722 29.5345 6.74512 29.6978 6.86975 29.8171C6.99438 29.9364 7.1608 30.002 7.33329 30H24.6666C24.8391 30.002 25.0055 29.9364 25.1302 29.8171C25.2548 29.6978 25.3277 29.5345 25.3333 29.362C25.3371 28.9219 25.2537 28.4854 25.0878 28.0776C24.922 27.6699 24.6771 27.299 24.3672 26.9865C24.0573 26.6739 23.6885 26.4258 23.2822 26.2565C22.8759 26.0872 22.4401 26 22 26Z" fill="url(#paint0_radial_2832_1681)"/>
<path d="M9.96991 17.242C10.034 16.9847 9.99334 16.7126 9.85682 16.4853C9.72031 16.258 9.49913 16.0942 9.24191 16.03C9.07591 15.9853 5.04191 14.8187 4.68124 8.00067H7.67324C7.93846 8.00067 8.19281 7.89531 8.38035 7.70777C8.56788 7.52024 8.67324 7.26588 8.67324 7.00067C8.67333 6.86929 8.64753 6.73918 8.59731 6.61778C8.5471 6.49638 8.47345 6.38606 8.38058 6.29313C8.28771 6.2002 8.17745 6.12648 8.05608 6.07618C7.93471 6.02589 7.80462 6 7.67324 6H4.33991C4.11592 6.00107 3.8944 6.04685 3.68834 6.13466C3.48228 6.22246 3.29583 6.35052 3.13991 6.51133C2.98341 6.66952 2.86074 6.85789 2.77937 7.065C2.698 7.2721 2.65962 7.49359 2.66657 7.716C2.96057 16.4247 8.52057 17.9107 8.75657 17.97C8.88404 18.0019 9.01656 18.0084 9.14655 17.9891C9.27654 17.9698 9.40144 17.9251 9.51413 17.8575C9.62681 17.7899 9.72507 17.7007 9.80327 17.5951C9.88148 17.4895 9.9381 17.3695 9.96991 17.242Z" fill="url(#paint1_linear_2832_1681)"/>
<path d="M22.0299 17.242C21.9658 16.9847 22.0065 16.7126 22.143 16.4853C22.2795 16.258 22.5007 16.0942 22.7579 16.03C22.9239 15.9853 26.9579 14.8187 27.3186 8.00067H24.3266C24.0614 8.00067 23.807 7.89531 23.6195 7.70777C23.4319 7.52024 23.3266 7.26588 23.3266 7.00067C23.3265 6.86929 23.3523 6.73918 23.4025 6.61778C23.4527 6.49638 23.5264 6.38606 23.6192 6.29313C23.7121 6.2002 23.8224 6.12648 23.9438 6.07618C24.0651 6.02589 24.1952 6 24.3266 6H27.6599C27.8839 6.00107 28.1054 6.04685 28.3115 6.13466C28.5175 6.22246 28.704 6.35052 28.8599 6.51133C29.0152 6.67008 29.1367 6.8587 29.2169 7.06578C29.2971 7.27286 29.3344 7.49407 29.3266 7.716C29.0326 16.4247 23.4726 17.9107 23.2366 17.97C22.9801 18.0325 22.7093 17.9911 22.4832 17.8547C22.2572 17.7183 22.0942 17.4981 22.0299 17.242Z" fill="url(#paint2_linear_2832_1681)"/>
<path d="M15.9998 23.004C14.3519 23.003 12.7527 22.445 11.4618 21.4207C8.3245 18.9427 6.6665 15.8593 6.6665 12.506V4C6.6665 3.46957 6.87722 2.96086 7.25229 2.58579C7.62736 2.21071 8.13607 2 8.6665 2H23.3332C23.8636 2 24.3723 2.21071 24.7474 2.58579C25.1225 2.96086 25.3332 3.46957 25.3332 4V12.506C25.3332 15.8593 23.6752 18.9427 20.5378 21.4207C19.247 22.445 17.6478 23.003 15.9998 23.004Z" fill="url(#paint3_linear_2832_1681)"/>
<path d="M13.4552 12.214L12.5932 11.0933C12.5272 11.0075 12.483 10.9069 12.4646 10.8002C12.4461 10.6935 12.454 10.5839 12.4874 10.4809C12.5208 10.3779 12.5788 10.2846 12.6564 10.209C12.7339 10.1335 12.8287 10.078 12.9326 10.0473L14.2892 9.64729C14.4363 9.60389 14.5639 9.51113 14.6506 9.38462L15.4506 8.21862C15.5118 8.12925 15.5939 8.05614 15.6897 8.00563C15.7855 7.95511 15.8922 7.92871 16.0006 7.92871C16.1089 7.92871 16.2156 7.95511 16.3114 8.00563C16.4073 8.05614 16.4893 8.12925 16.5506 8.21862L17.3506 9.38462C17.4372 9.51113 17.5648 9.60389 17.7119 9.64729L19.0686 10.0473C19.1724 10.078 19.2672 10.1335 19.3448 10.209C19.4224 10.2846 19.4804 10.3779 19.5138 10.4809C19.5472 10.5839 19.555 10.6935 19.5366 10.8002C19.5181 10.9069 19.474 11.0075 19.4079 11.0933L18.5459 12.214C18.4525 12.3354 18.4037 12.4854 18.4079 12.6386L18.4466 14.0526C18.4495 14.1609 18.426 14.2682 18.3781 14.3653C18.3302 14.4625 18.2594 14.5465 18.1718 14.6101C18.0841 14.6737 17.9823 14.715 17.8751 14.7304C17.7679 14.7459 17.6586 14.7349 17.5566 14.6986L16.2232 14.2253C16.0788 14.1739 15.921 14.1739 15.7766 14.2253L14.4432 14.6986C14.3412 14.7349 14.2319 14.7459 14.1247 14.7304C14.0175 14.715 13.9157 14.6737 13.828 14.6101C13.7404 14.5465 13.6696 14.4625 13.6217 14.3653C13.5738 14.2682 13.5503 14.1609 13.5532 14.0526L13.5919 12.6386C13.5965 12.4856 13.5482 12.3356 13.4552 12.214Z" fill="url(#paint4_linear_2832_1681)"/>
<defs>
<radialGradient id="paint0_radial_2832_1681" cx="0" cy="0" r="1" gradientUnits="userSpaceOnUse" gradientTransform="translate(7.19729 29.756) scale(16.028 16.028)">
<stop stop-color="#F0F0F0"/>
<stop offset="1" stop-color="#CAC8C5"/>
</radialGradient>
<linearGradient id="paint1_linear_2832_1681" x1="2.70057" y1="12" x2="6.94657" y2="12" gradientUnits="userSpaceOnUse">
<stop stop-color="#F0F0F0"/>
<stop offset="1" stop-color="#CAC8C5"/>
</linearGradient>
<linearGradient id="paint2_linear_2832_1681" x1="23.6453" y1="12" x2="29.0339" y2="12" gradientUnits="userSpaceOnUse">
<stop stop-color="#F0F0F0"/>
<stop offset="1" stop-color="#CAC8C5"/>
</linearGradient>
<linearGradient id="paint3_linear_2832_1681" x1="6.6665" y1="12.502" x2="25.3332" y2="12.502" gradientUnits="userSpaceOnUse">
<stop stop-color="#F0F0F0"/>
<stop offset="1" stop-color="#CAC8C5"/>
</linearGradient>
<linearGradient id="paint4_linear_2832_1681" x1="12.4546" y1="11.3333" x2="19.5452" y2="11.3333" gradientUnits="userSpaceOnUse">
<stop stop-color="#C8C0B5"/>
<stop offset="1" stop-color="#9F9D9B"/>
</linearGradient>
</defs>
</svg>
