<svg style="aspect-ratio: 1;" viewBox="0 0 16 16" xmlns="http://www.w3.org/2000/svg">
<path d="M13.9999 7.76392V13.9999C13.9999 14.1767 13.9297 14.3463 13.8047 14.4713C13.6796 14.5963 13.5101 14.6666 13.3333 14.6666H2.66659C2.48978 14.6666 2.32021 14.5963 2.19518 14.4713C2.07016 14.3463 1.99992 14.1767 1.99992 13.9999V7.76392C1.56947 7.27723 1.33229 6.64966 1.33325 5.99992V1.99992C1.33325 1.82311 1.40349 1.65354 1.52852 1.52851C1.65354 1.40349 1.82311 1.33325 1.99992 1.33325H13.9999C14.1767 1.33325 14.3463 1.40349 14.4713 1.52851C14.5964 1.65354 14.6666 1.82311 14.6666 1.99992V5.99992C14.6666 6.67592 14.4146 7.29325 13.9999 7.76392ZM12.6666 8.58259C12.1898 8.70507 11.6885 8.69344 11.2179 8.54897C10.7473 8.4045 10.3258 8.13282 9.99992 7.76392C9.74994 8.04797 9.44223 8.27543 9.09734 8.43109C8.75244 8.58675 8.37831 8.66703 7.99992 8.66659C7.62153 8.66703 7.2474 8.58675 6.90251 8.43109C6.55762 8.27543 6.24991 8.04797 5.99992 7.76392C5.6748 8.13388 5.25334 8.4063 4.78251 8.55085C4.31168 8.69539 3.80996 8.70638 3.33325 8.58259V13.3333H12.6666V8.58259ZM9.33326 5.99992C9.33326 5.82311 9.40349 5.65354 9.52852 5.52851C9.65354 5.40349 9.82311 5.33325 9.99992 5.33325C10.1767 5.33325 10.3463 5.40349 10.4713 5.52851C10.5964 5.65354 10.6666 5.82311 10.6666 5.99992C10.6666 6.35354 10.8071 6.69268 11.0571 6.94273C11.3072 7.19278 11.6463 7.33325 11.9999 7.33325C12.3535 7.33325 12.6927 7.19278 12.9427 6.94273C13.1928 6.69268 13.3333 6.35354 13.3333 5.99992V2.66659H2.66659V5.99992C2.66659 6.35354 2.80706 6.69268 3.05711 6.94273C3.30716 7.19278 3.6463 7.33325 3.99992 7.33325C4.35354 7.33325 4.69268 7.19278 4.94273 6.94273C5.19278 6.69268 5.33325 6.35354 5.33325 5.99992C5.33325 5.82311 5.40349 5.65354 5.52852 5.52851C5.65354 5.40349 5.82311 5.33325 5.99992 5.33325C6.17673 5.33325 6.3463 5.40349 6.47133 5.52851C6.59635 5.65354 6.66659 5.82311 6.66659 5.99992C6.66659 6.35354 6.80706 6.69268 7.05711 6.94273C7.30716 7.19278 7.6463 7.33325 7.99992 7.33325C8.35354 7.33325 8.69268 7.19278 8.94273 6.94273C9.19278 6.69268 9.33326 6.35354 9.33326 5.99992Z" />
</svg>
